<?xml version="1.0" encoding="UTF-8"?>
<svg id="logos" xmlns="http://www.w3.org/2000/svg" viewBox="0 0 1497.39 194.27">
  <defs>
    <style>
      .cls-1 {
        fill: #a7c947;
      }

      .cls-2 {
        fill: #a7c947;
      }

      .cls-3 {
        fill: #487a2d;
      }

      .cls-4 {
        fill: #f47d20;
      }
    </style>
  </defs>
  <g>
    <g>
      <path d="M1160.31,159.25v-63.09h-12.8v-9.61h12.8v-2.21c0-3.91.61-7.36,1.84-10.37,1.22-3.02,2.99-5.56,5.27-7.62,2.3-2.06,5.1-3.62,8.4-4.67,3.3-1.04,7.01-1.58,11.15-1.58,3.19,0,6.38.39,9.53,1.15l-.76,10.07c-1.04-.17-2.24-.33-3.56-.43s-2.63-.17-3.93-.17c-4.49,0-7.96,1.17-10.42,3.54-2.45,2.34-3.67,5.73-3.67,10.11v2.21h13.67v9.61h-13.67v63.09h-13.87v-.02Z"/>
      <path d="M921.73,135.12c0-2.28-.39-4.3-1.17-6.05-.78-1.74-2.15-3.34-4.12-4.8s-4.64-2.82-7.99-4.1c-3.34-1.28-7.6-2.58-12.74-3.93-5.4-1.39-10.29-2.97-14.65-4.73-4.36-1.78-8.09-3.8-11.15-6.12-3.08-2.3-5.43-4.95-7.07-7.9s-2.47-6.34-2.47-10.13.89-7.33,2.67-10.59,4.28-6.08,7.53-8.46,7.14-4.28,11.7-5.6c4.54-1.35,9.61-2.02,15.21-2.02,6.14,0,11.61.82,16.41,2.5,4.8,1.65,8.83,3.84,12.11,6.58,3.28,2.73,5.75,5.88,7.47,9.46,1.69,3.58,2.54,7.27,2.54,11.09h-14.45c0-2.73-.48-5.25-1.45-7.6-.98-2.32-2.45-4.34-4.45-6.05-2-1.69-4.49-3.02-7.49-3.97-2.99-.93-6.55-1.41-10.63-1.41-3.84,0-7.18.41-10.05,1.22-2.84.8-5.19,1.91-7.05,3.32-1.84,1.41-3.21,3.08-4.12,5.01-.89,1.93-1.35,4.04-1.35,6.32,0,2.06.48,3.95,1.45,5.64s2.47,3.28,4.54,4.71c2.04,1.43,4.69,2.76,7.9,3.97,3.21,1.22,7.07,2.37,11.57,3.49,6.18,1.56,11.55,3.3,16.04,5.21,4.49,1.91,8.2,4.06,11.13,6.49,2.93,2.41,5.1,5.12,6.51,8.14,1.43,2.99,2.13,6.4,2.13,10.22s-.89,7.6-2.69,10.81c-1.8,3.23-4.36,5.99-7.68,8.27-3.32,2.28-7.31,4.04-11.98,5.27s-9.87,1.84-15.62,1.84c-3.34,0-6.68-.28-10.05-.85-3.34-.56-6.55-1.39-9.64-2.52s-5.92-2.52-8.55-4.17-4.9-3.58-6.86-5.77-3.47-4.67-4.58-7.4-1.65-5.73-1.65-9.01h14.45c0,3.36.74,6.23,2.21,8.64,1.48,2.39,3.45,4.38,5.92,5.95s5.32,2.71,8.55,3.45c3.21.74,6.6,1.11,10.16,1.11,7.6,0,13.41-1.39,17.45-4.17,4.06-2.78,6.08-6.58,6.08-11.35h0Z"/>
      <path d="M978.82,151.02c2.45,0,4.8-.35,7.05-1.09,2.26-.72,4.23-1.69,5.95-2.95s3.12-2.73,4.19-4.47c1.06-1.71,1.71-3.6,1.91-5.6h13.11c-.2,3.23-1.19,6.32-2.95,9.24-1.78,2.93-4.1,5.51-7.01,7.73s-6.25,3.99-10.07,5.32-7.88,1.97-12.17,1.97c-6.1,0-11.39-.98-15.93-2.93s-8.29-4.58-11.28-7.9-5.23-7.16-6.71-11.54-2.21-9.03-2.21-13.91v-2.82c0-4.88.74-9.51,2.21-13.91,1.48-4.38,3.71-8.25,6.71-11.54,2.99-3.32,6.75-5.95,11.24-7.9s9.79-2.93,15.89-2.93c4.75,0,9.05.67,12.93,2.02,3.86,1.35,7.23,3.19,10.05,5.53s5.03,5.14,6.64,8.35c1.61,3.23,2.5,6.71,2.69,10.42h-13.11c-.2-2.24-.78-4.34-1.76-6.27-.98-1.95-2.28-3.65-3.93-5.1s-3.6-2.6-5.88-3.45-4.82-1.28-7.6-1.28c-4.3,0-7.86.76-10.68,2.28-2.82,1.52-5.1,3.54-6.81,6.01-1.71,2.5-2.93,5.3-3.62,8.4-.69,3.1-1.04,6.23-1.04,9.37v2.82c0,3.23.35,6.4,1.04,9.51.69,3.1,1.89,5.9,3.6,8.35,1.69,2.47,3.97,4.45,6.81,5.99,2.8,1.52,6.4,2.28,10.74,2.28h0Z"/>
      <path d="M1062.89,149.29h51.69v10.55h-66.17V60.68h14.45v88.61h.02Z"/>
      <path d="M1226,160.59c-5.64,0-10.76-.87-15.32-2.63-4.58-1.76-8.49-4.17-11.72-7.29-3.26-3.1-5.75-6.81-7.49-11.11-1.76-4.3-2.63-9.01-2.63-14.11v-2.82c0-5.9.98-11.2,2.95-15.86,1.97-4.67,4.6-8.57,7.9-11.76,3.3-3.19,7.07-5.6,11.31-7.29,4.25-1.67,8.66-2.52,13.26-2.52,5.79,0,10.79.91,15,2.71,4.19,1.82,7.66,4.32,10.37,7.49,2.71,3.19,4.73,6.94,6.03,11.28s1.95,9.07,1.95,14.17v5.58h-54.93c.11,3.36.72,6.49,1.84,9.4,1.13,2.91,2.71,5.45,4.8,7.6,2.06,2.15,4.58,3.84,7.49,5.1,2.93,1.26,6.23,1.89,9.92,1.89,4.9,0,9.05-.89,12.43-2.69,3.41-1.8,6.36-4.17,8.92-7.12l8.46,5.9c-1.3,1.8-2.86,3.54-4.73,5.21-1.84,1.67-4.01,3.19-6.49,4.49-2.47,1.32-5.32,2.37-8.51,3.17-3.17.82-6.77,1.22-10.83,1.22ZM1224.28,95.43c-2.8,0-5.38.46-7.73,1.37s-4.45,2.26-6.29,3.99-3.39,3.93-4.6,6.51c-1.22,2.6-2.06,5.58-2.52,8.94h40.6v-.93c-.15-2.41-.59-4.82-1.3-7.18-.72-2.37-1.84-4.49-3.36-6.38s-3.49-3.41-5.88-4.58c-2.41-1.15-5.38-1.74-8.92-1.74h0Z"/>
      <path d="M1281.81,148.7h51.69v10.55h-66.17V60.1h14.45v88.61h.02Z"/>
      <path d="M1390.56,159.25c-.5-.89-.89-2.02-1.19-3.39-.3-1.37-.54-2.78-.76-4.28-1.3,1.22-2.76,2.37-4.38,3.45-1.63,1.11-3.41,2.06-5.32,2.89-1.93.82-4.01,1.48-6.25,1.95-2.26.48-4.62.69-7.12.69-4.14,0-7.9-.56-11.28-1.67-3.36-1.13-6.25-2.65-8.62-4.58-2.37-1.93-4.21-4.19-5.51-6.81s-1.95-5.43-1.95-8.42c0-3.91.85-7.33,2.54-10.31s4.12-5.47,7.31-7.49c3.17-2.02,7.01-3.54,11.5-4.58,4.49-1.02,9.53-1.54,15.06-1.54h13.78v-5.71c0-4.34-1.45-7.81-4.34-10.37-2.91-2.58-7.16-3.86-12.8-3.86-2.6,0-4.97.3-7.12.93s-3.99,1.48-5.51,2.52c-1.52,1.06-2.71,2.28-3.56,3.67s-1.28,2.84-1.28,4.36h-13.93c0-2.6.76-5.16,2.28-7.73s3.69-4.84,6.49-6.88,6.18-3.69,10.16-4.97c3.97-1.28,8.4-1.91,13.3-1.91,4.41,0,8.46.5,12.17,1.52,3.71,1,6.9,2.54,9.55,4.58,2.65,2.04,4.73,4.58,6.23,7.62,1.5,3.04,2.26,6.6,2.26,10.68v33.79c0,2.47.24,5.06.72,7.77.48,2.71,1.19,5.06,2.13,7.01v1.09h-14.54v-.02ZM1367.55,149.77c2.5,0,4.84-.3,7.05-.93,2.19-.63,4.19-1.45,5.99-2.45s3.36-2.17,4.69-3.45c1.32-1.3,2.37-2.65,3.1-4.04v-14.91h-11.55c-7.94,0-14.06,1.11-18.36,3.32-4.3,2.21-6.45,5.56-6.45,10.05,0,1.76.33,3.39.98,4.9s1.63,2.84,2.95,3.93c1.32,1.11,2.95,1.97,4.86,2.63,1.95.65,4.19.95,6.73.95Z"/>
      <path d="M1483.55,123.7c0,5.34-.69,10.24-2.11,14.74-1.39,4.49-3.45,8.4-6.14,11.7s-5.99,5.86-9.9,7.68c-3.91,1.84-8.33,2.76-13.35,2.76-5.34,0-9.96-.85-13.87-2.52s-7.18-4.08-9.9-7.23l-.67,8.4h-12.74V60.1h13.87v34.46c2.69-2.99,5.95-5.32,9.74-6.92,3.8-1.61,8.27-2.41,13.41-2.41s9.59.89,13.52,2.69,7.23,4.32,9.9,7.55c2.67,3.26,4.71,7.14,6.1,11.7,1.39,4.54,2.11,9.59,2.11,15.15v1.39h.02ZM1469.68,122.29c0-3.62-.37-7.05-1.13-10.24-.76-3.21-1.95-6.01-3.62-8.42s-3.86-4.34-6.55-5.75-5.99-2.13-9.9-2.13c-2.54,0-4.84.28-6.9.87-2.04.59-3.88,1.39-5.51,2.41-1.63,1.04-3.04,2.24-4.23,3.62s-2.21,2.89-3.08,4.49v31.44c.89,1.61,1.95,3.1,3.19,4.49,1.22,1.39,2.65,2.6,4.28,3.62s3.45,1.84,5.51,2.41c2.04.59,4.34.87,6.9.87,3.75,0,6.94-.69,9.59-2.08,2.65-1.39,4.82-3.28,6.51-5.64,1.69-2.37,2.95-5.16,3.75-8.35.8-3.21,1.19-6.62,1.19-10.24v-1.37Z"/>
      <path d="M1035.61,159.83h-13.87v-72.7h13.87v72.7Z"/>
      <circle cx="1028.67" cy="68.84" r="8.16"/>
      <circle cx="1131.55" cy="68.26" r="8.16"/>
      <path d="M1138.5,159.25h-13.87v-72.68h13.87v72.68Z"/>
    </g>
    <g>
      <path class="cls-2" d="M734.29,112.09c1.41-3.08,2.11-6.38,2.08-9.7-.02-2.21-.37-4.43-1.06-6.6-.07-.17-.11-.35-.17-.52l-.07-.2c-.04-.11-.07-.22-.11-.33-.02-.04-.04-.09-.07-.15-1.35-4.3-4.54-8.2-8.22-12.72-4.54-5.53-9.66-11.78-12.33-20.23-2.6-8.2-1.97-15.84-1.43-22.57.48-5.75.91-11.2-.67-16.21v-.02s-.02-.09-.02-.13c-.02-.11-.07-.22-.09-.33l-.07-.15c-.04-.17-.11-.35-.15-.54-.11-.37-.24-.74-.37-1.09-.02-.04-.04-.11-.07-.15-.11-.3-.24-.61-.37-.91t-.02-.04c-2.06-4.77-5.69-8.68-10.35-11.11-4.71-2.45-9.98-3.17-15.08-2.11-.33.07-.67.15-1,.24-.04.02-.09.02-.13.02-.37.09-.74.2-1.11.33-5.79,1.82-10.53,5.79-13.3,11.18-.35.67-.67,1.37-.93,2.06-1.11,2.78-1.67,5.71-1.63,8.66.02,2.21.37,4.43,1.06,6.6v.02c.07.17.11.35.17.52l.07.17s.02.07.04.11.04.11.07.15.02.07.04.11l.04.11c1.32,4.28,4.51,8.18,8.22,12.7,4.54,5.53,9.66,11.81,12.33,20.25,2.67,8.46,2.08,16.6,1.54,23.78-.43,5.79-.8,10.79.54,15v.02s.02.09.04.13c.02.11.07.22.09.33l.04.17c.04.17.11.35.15.54.09.3.2.61.3.89,3.32,9.16,12.02,14.97,21.38,14.97,2.26,0,4.56-.35,6.84-1.06,5.79-1.82,10.53-5.79,13.3-11.18.15-.33.3-.67.46-1.02Z"/>
      <path class="cls-2" d="M802.48,55c-3.86-6.08-9.87-10.26-16.88-11.83-14.5-3.21-28.91,5.99-32.12,20.49-.04.22-.09.43-.13.65l-.04.22c-.02.15-.07.3-.09.46v.02s0,.07-.02.11v.02c-1.17,5.19-.2,11.09.91,17.93,1.37,8.42,2.93,17.95.65,28.25-2.28,10.33-7.75,18.36-12.56,25.46-3.88,5.71-7.23,10.63-8.33,15.76v.02s-.02.09-.04.13c-.04.13-.07.26-.11.39l-.07.22c-.04.22-.11.43-.15.65-1.56,7.03-.28,14.24,3.58,20.29,3.86,6.08,9.87,10.26,16.88,11.83,1.95.43,3.93.65,5.88.65,5.08,0,10.05-1.43,14.43-4.23,1.52-.98,2.91-2.06,4.19-3.28,3.82-3.65,6.47-8.33,7.64-13.61.04-.22.09-.43.13-.63l.04-.22c.02-.15.07-.3.09-.46v-.02s.02-.09.02-.11c1.17-5.21.2-11.11-.91-17.97-1.37-8.4-2.93-17.93-.65-28.21,2.21-10.03,7.4-17.53,11.98-24.13,3.91-5.64,7.6-10.98,8.94-17.06t.02-.04s.02-.09.04-.13c.04-.13.07-.26.11-.39l.07-.22c.04-.22.11-.43.15-.65,1.5-7.1.24-14.3-3.65-20.36Z"/>
      <path class="cls-2" d="M650.92,64.57c-5.75-2.99-12.3-3.56-18.47-1.61s-11.22,6.18-14.19,11.94c-2.99,5.75-3.56,12.3-1.61,18.47s6.18,11.22,11.94,14.19c3.49,1.82,7.31,2.73,11.15,2.73,2.45,0,4.93-.37,7.31-1.13,6.16-1.95,11.22-6.18,14.19-11.94,2.99-5.75,3.56-12.3,1.61-18.47-1.95-6.16-6.18-11.22-11.94-14.19Z"/>
    </g>
  </g>
  <g id="g7130">
    <path id="path7134" class="cls-3" d="M309.42,15.7h0c-.73-1.44-2.21-2.36-3.83-2.36h-3.5c-1.76,0-2.91,1.86-2.12,3.43l5.85,11.67,5.34,9.09c4.19,7.14,9.88,13.28,16.66,18.03l34.79,24.34c4.73,3.31,8.75,7.53,11.83,12.41l11.35,18.24,1.66-14.7-9.15-16.32c-2.62-4.67-6.3-8.65-10.75-11.62l-37.67-25.16-3.65-3.33c-5.9-5.38-10.77-11.79-14.38-18.91l-2.44-4.82"/>
    <path id="path7136" class="cls-3" d="M330.04,152.06h0l-12.57-11.46-7.55-18.49.27-7.09-3.67,12.67,1.98,7.75c2.25,8.81,7.72,16.45,15.35,21.41l32.92,21.42c3.24,2.1,7.01,3.23,10.87,3.23h1.35c3.42,0,4.62-4.53,1.65-6.23l-40.6-23.19"/>
    <path id="path7138" class="cls-3" d="M385.05,38.2h0l.14.27c.64,1.21.78,2.62.38,3.93l-1.43,4.63c-.43,1.38-2.23,1.71-3.12.57l-18.82-24.19c-2-2.58-.05-6.32,3.21-6.15l5.85.3c1.79.09,3.41,1.12,4.25,2.71l9.53,17.94"/>
    <path id="path7140" class="cls-4" d="M374.78,25.69h0c.99,1.87-.5,4.09-2.61,3.88l-27.55-2.84c-.18-.02-.36-.02-.54,0l-30.88,3.16c-1.11.11-2.18-.48-2.66-1.49l-3.25-6.81c-.94-1.96.76-4.16,2.9-3.74l33.11,6.47c.26.05.53.06.8.03l25.83-2.86c1.5-.17,2.95.6,3.66,1.93l1.21,2.27"/>
    <path id="path7142" class="cls-4" d="M383.22,43.91h0c.21.34.33.73.37,1.13h0c.15,1.66-1.25,3.05-2.91,2.87l-22.92-2.38c-.16-.02-.33-.02-.49,0l-29.24,2.4c-.74.06-1.46-.19-2.01-.69l-2.58-2.36c-1.87-1.71-.5-4.81,2.02-4.59l31.2,2.77c.28.02.55,0,.82-.06l19.2-4.38c1.75-.4,3.56.37,4.49,1.91l2.04,3.37"/>
    <path id="path7144" class="cls-4" d="M347.72,59.39l15.79,2.64c.45.07.91.03,1.34-.12l6.48-2.35c2.1-.76,4.14,1.25,3.4,3.36l-.13.36c-.4,1.14-1.51,1.86-2.71,1.77l-7.14-.56c-.37-.03-.74.02-1.09.14l-8.39,2.97c-.97.34-2.05.09-2.77-.64l-5.71-5.79c-.71-.73-.08-1.94.92-1.77"/>
    <path id="path7146" class="cls-4" d="M313.75,139.87h0c.41,1.27,1.71,2.03,3.02,1.78l16.4-3.17c.21-.04.43-.06.65-.04l12.16.66c1.05.06,2.03-.51,2.5-1.45l.43-.85c1.03-2.02-.8-4.32-3-3.77l-11.91,2.96c-.34.08-.69.1-1.03.05l-18.92-2.82c-1.19-.18-2.15.96-1.78,2.11l1.48,4.54"/>
    <path id="path7148" class="cls-4" d="M369.51,80.39l-4.11,2c-.37.18-.78.27-1.19.27l-16.81-.23c-1.24-.02-2.33.83-2.61,2.04l-.9,3.84c-.48,2.04,1.48,3.8,3.45,3.11l17.56-6.15c.44-.15.92-.19,1.38-.1l4.29.83c2.28.44,3.98-2.06,2.74-4.02l-.38-.6c-.72-1.14-2.18-1.55-3.39-.97"/>
    <path id="path7150" class="cls-4" d="M383.51,99.48h0c.65,1.77-.7,3.63-2.58,3.56l-20.97-.73c-.2,0-.4,0-.6.05l-34.17,6.71c-2.3.45-4.01-2.09-2.72-4.05l4.5-6.84c.55-.83,1.51-1.28,2.5-1.18l29.8,3.28c.26.03.52.02.78-.03l19.97-3.77c1.29-.24,2.57.48,3.02,1.71l.47,1.28"/>
    <path id="path7152" class="cls-4" d="M355.38,169.53h0c2.22,1.55.96,5.05-1.75,4.81l-18.17-1.3c-.22,0-.43.01-.64.02l-19.83,2.79c-2.22.31-3.8-2.1-2.62-4.01l2.33-3.78c.61-.99,1.8-1.47,2.93-1.17l16.89,4.45c.43.11.87.12,1.3.01l16.34-2.77c.96-.16,1.94.06,2.74.61l.48.33"/>
    <path id="path7154" class="cls-4" d="M374.89,112.22l-5.09,10.18c-.49.99-1.55,1.57-2.65,1.45l-27.7-2.94c-.23-.02-.47-.02-.7.02l-26.97,4.32c-2.2.35-3.83-2.01-2.71-3.94l1.6-2.75c.5-.87,1.46-1.38,2.46-1.31l25.64,1.64c.22.01.44,0,.65-.04l35.46-6.61h0"/>
    <path id="path7156" class="cls-1" d="M380.08,49.73l5.72-8.72-.31,13.07c-.03,1.4-.51,2.74-1.37,3.85l-5.93,7.67c-4.34,5.61-9.48,10.55-15.26,14.66l-35.25,25.05c-2.2,1.56-4.21,3.37-6.01,5.38,0,0-12.15,12.33-15.14,16.99.47-2.41.6-3.72.6-3.72,1.19-7.39,4.23-14.36,8.85-20.26l2.93-3.74c2.31-2.95,5.05-5.54,8.14-7.67l34.57-23.92c2.74-1.9,5.3-4.04,7.64-6.41l5.04-5.09c2.16-2.18,4.1-4.58,5.78-7.16h0"/>
    <path id="path7158" class="cls-1" d="M356.96,125l-23.2,16.05c-7.5,5.19-13.92,11.8-18.9,19.44l-13.08,20.11c-.58.9.06,2.08,1.13,2.08h6.11c1.51,0,2.91-.79,3.68-2.09l3.16-5.29c5.61-9.4,13.11-17.53,22.03-23.86l23.92-17c6.54-4.65,12.65-9.87,18.26-15.6l3.92-4c1.84-1.88,2.91-4.38,3.01-7l.45-11.99-.03.06c-2.22,5.13-4.54,7.48-6.83,9.98l-.98.98c-.73.74-1.51,1.43-2.33,2.07l-20.33,16.06"/>
    <path id="path7160" class="cls-1" d="M16.96,6.24v179.23h38.57v-103.55l50.5,103.55h45.79V6.24h-38.57v103.32L62.44,6.24H16.96Z"/>
    <path id="path7162" class="cls-1" d="M208.83,107.38v46.71h24.76c10.46,0,18.18-2,23.17-6.01,4.98-4,7.48-10.13,7.48-18.39,0-14.87-10.63-22.31-31.87-22.31h-23.54ZM208.83,77.23h22.07c10.3,0,17.75-1.59,22.37-4.78,4.62-3.19,6.93-8.46,6.93-15.81,0-6.87-2.51-11.79-7.54-14.77-5.03-2.98-12.98-4.48-23.84-4.48h-19.98v39.84h0ZM170.82,6.24h55.78c25.42,0,43.87,3.62,55.35,10.85,11.48,7.23,17.22,18.74,17.22,34.51,0,10.71-2.51,19.49-7.54,26.36-5.03,6.87-11.71,10.99-20.04,12.38v1.23c11.36,2.53,19.55,7.27,24.58,14.22,5.03,6.95,7.54,16.18,7.54,27.71,0,16.35-5.9,29.1-17.71,38.25-11.81,9.15-27.85,13.73-48.12,13.73h-67.06V6.24"/>
    <path id="path7164" class="cls-1" d="M504.21,134.58c0,15.77-5.82,28.19-17.47,37.27-11.65,9.08-27.85,13.62-48.61,13.62-19.12,0-36.04-3.5-50.75-10.51v-34.41c12.1,5.26,22.33,8.96,30.71,11.11,8.38,2.15,16.04,3.23,22.99,3.23,8.33,0,14.73-1.55,19.18-4.66,4.45-3.11,6.68-7.72,6.68-13.86,0-3.42-.98-6.47-2.94-9.14-1.96-2.67-4.84-5.24-8.64-7.71-3.8-2.47-11.54-6.41-23.23-11.83-10.95-5.02-19.17-9.84-24.64-14.46-5.48-4.62-9.85-9.99-13.12-16.13-3.27-6.13-4.9-13.3-4.9-21.5,0-15.45,5.37-27.6,16.12-36.44,10.75-8.84,25.6-13.26,44.56-13.26,9.32,0,14.77,1.27,23.17,3.64,9.35,2.64,14.14,3.72,23.15,7.18l.48,35.14c-12.46-8.26-21.01-11.14-28.21-13.39-6.5-2.03-13.78-1.75-19.82-1.75-7.19,0-12.71,1.63-16.55,4.9-3.84,3.27-5.76,7.53-5.76,12.78,0,3.27.78,6.11,2.33,8.54,1.55,2.43,4.02,4.78,7.42,7.05,3.39,2.27,11.42,6.35,24.09,12.24,16.75,7.81,28.24,15.63,34.45,23.48,6.21,7.85,9.32,17.46,9.32,28.85"/>
  </g>
</svg>